<svg width="61" height="52" viewBox="0 0 61 52" fill="none" xmlns="http://www.w3.org/2000/svg">
<path d="M14.6055 24.8242C14.6055 20.6576 15.8099 16.9141 18.2188 13.5938C20.6927 10.2734 24.0781 7.66927 28.375 5.78125L27.0078 0.996094C19 2.75391 12.6523 6.88802 7.96484 13.3984C3.27734 19.9089 0.933594 26.9076 0.933594 34.3945C0.933594 39.082 2.07292 43.0534 4.35156 46.3086C6.63021 49.5638 9.85286 51.1914 14.0195 51.1914C17.6003 51.1914 20.6276 49.8242 23.1016 47.0898C25.5755 44.3555 26.8125 41.1328 26.8125 37.4219C26.8125 33.8411 25.6732 30.8464 23.3945 28.4375C21.1159 26.0286 18.1862 24.8242 14.6055 24.8242ZM46.6367 24.8242C46.6367 20.6576 47.8411 16.9141 50.25 13.5938C52.724 10.2734 56.1094 7.66927 60.4062 5.78125L59.0391 0.996094C51.0312 2.75391 44.6836 6.88802 39.9961 13.3984C35.3086 19.9089 32.9648 26.9076 32.9648 34.3945C32.9648 39.082 34.1042 43.0534 36.3828 46.3086C38.6615 49.5638 41.8841 51.1914 46.0508 51.1914C49.6315 51.1914 52.6589 49.8242 55.1328 47.0898C57.6068 44.3555 58.8438 41.1328 58.8438 37.4219C58.8438 33.8411 57.7044 30.8464 55.4258 28.4375C53.1471 26.0286 50.2174 24.8242 46.6367 24.8242Z" fill="#137241"/>
</svg>
